<svg id="fe4cac6e-4e22-46ff-b348-46beb11674de" data-name="Layer 1" xmlns="http://www.w3.org/2000/svg" viewBox="0 0 167.48 115.249"><path d="M.362,3.885c.3,4.319,1.57,8.509,1.817,12.835A63.433,63.433,0,0,0,4.4,28.9C5.778,34.26,6.534,39.286,8.622,44.5c1.212,3.028,1.881,6.262,3.13,9.256,1.406,3.371,2.306,6.984,3.812,10.294,2.353,5.17,4.125,10.725,6.659,15.781,2.113,4.214,4.622,8.21,6.907,12.329a4.858,4.858,0,0,0,1.558,1.7c3.316,2.22,7.064,4.055,10.605,5.958,1.7.912,3.62,1.414,5.39,2.338,5.173,2.7,11.236,5.368,17.034,6.21,1.714.249,3.794.219,5.361.972.443.213.961,1.061,1.642,1.378a11.33,11.33,0,0,0,3.453.457c1.471.163,3.452-.1,4.853.338a25.063,25.063,0,0,0,4.206,1.3c1.193.192,2.322.55,3.488.731,3.761.581,7.605.557,11.367,1.156h0c7.444,1.186,15.089.165,22.6-.273a4.957,4.957,0,0,0,4.137-2.7c1.711-3.349,3.259-6.819,5.243-10.016,1.813-2.919,2.2-6.636,4.254-9.379,1.411-1.88,1.642-3.505,2.415-5.771,2.2-6.461,6.45-11.764,9.013-18,.725-1.763,2.065-3.1,2.733-4.913,1.438-3.908,3.31-7.8,4.406-11.818,1.858-6.821,5.059-13.268,6.616-20.152a60.161,60.161,0,0,1,2.7-7.784c1.315-3.52,1.561-7.381,3.181-10.8,1.89-3.982,1.9-8.687,2.354-13.095H.264C.26,1.3.271,2.592.362,3.885Z" transform="translate(-0.264)" fill="#678539"/><path d="M73.5,56.037c.007.78-.04,1.385,0,2.136a1.044,1.044,0,0,1-.03.406c-.078.221-.258.249-.463.265-.846.068-1.869.182-2.71.278a3.481,3.481,0,0,1-1.878-.185,1.986,1.986,0,0,1-.132-3.324,4.329,4.329,0,0,1,2.065-.53c.816-.082,1.637-.1,2.453-.133.18-.008.52-.081.651.092a.368.368,0,0,1,.059.218c.006.313-.02.558-.018.777m2.04-7.013a3,3,0,0,0-1.263-1.334,5.381,5.381,0,0,0-2-.452,18.861,18.861,0,0,0-5.334.239c-.536.091-1.533.175-1.694.778a1.633,1.633,0,0,0,.43,1.6,1.408,1.408,0,0,0,.807.1c.352-.032,3.268-.194,3.926-.152,1.056.067,3.056-.262,3.113,1.5.008.247.054.492.04.737-.01.168-.03.336-.029.5,0,.087.033.272-.066.317a.486.486,0,0,1-.142.018c-.128,0-.259,0-.389.007-1.115.044-2.237.052-3.348.163a7.06,7.06,0,0,0-2.981.783.272.272,0,0,0-.061.038,4.116,4.116,0,0,0-1.473,3.707c.1,1.568.475,3.234,2.217,3.7a14.4,14.4,0,0,0,3.81.1c.892-.012,1.8.014,2.691-.064a2.377,2.377,0,0,0,2.146-1.7,38.28,38.28,0,0,0,.328-6.47,26.072,26.072,0,0,0-.494-3.427,3.1,3.1,0,0,0-.23-.7" transform="translate(-0.264)" fill="#fff"/><path d="M93.312,57.493a2.844,2.844,0,0,1-.1.779c-.125.415-.518.4-.89.4-.935.009-1.881-.007-2.814-.081a4.054,4.054,0,0,1-1.2-.208,1.486,1.486,0,0,1-.734-.758,5.258,5.258,0,0,1-.321-2.091c-.007-.9-.043-1.8-.027-2.707.008-.46.029-.919.074-1.376a3.688,3.688,0,0,1,.229-1.253,1.19,1.19,0,0,1,.645-.562,4.721,4.721,0,0,1,1.048-.155c.381-.041.764-.074,1.147-.1q1.149-.081,2.3-.082c.212,0,.411-.03.509.192a1.468,1.468,0,0,1,.076.559l.027.694c.01,1.112.092,2.223.1,3.336.005.44-.01.88-.006,1.32-.013.545-.04,1.089-.067,1.633-.007.154-.007.31-.01.465m2.649-5.26c.054-1.36.1-6.965.064-7.378s.049-1.853.064-2.431c.027-1.015.141-1.291-.637-1.283-1.793.016-1.924.223-1.975.837-.061.735-.092,1.825-.128,2.6-.019.4-.049.8-.082,1.194s-.02.779-.057,1.165a.139.139,0,0,1-.171.154c-.833.015-1.665.018-2.5,0a15.1,15.1,0,0,0-3.368.114,2.656,2.656,0,0,0-2.193,2.044,23.294,23.294,0,0,0-.364,6.507,18.023,18.023,0,0,0,.578,3.2c.212.757.657,1.767,1.565,1.9.54.077,3.693.057,4.439.1s3.194.048,3.609.05.954-.075,1.131-1.269-.031-6.142.023-7.5" transform="translate(-0.264)" fill="#fff"/><path d="M111.05,50.079a13.045,13.045,0,0,1,0,2.476c-.1,2.573-.365,5.133-.5,7.712-.038.767.008,1.132.819,1.229a3.434,3.434,0,0,0,1.251.007c.421-.138.411-.432.556-1.711.095-.835.068-2.574.113-3.472s.28-4.17.3-4.589a1.224,1.224,0,0,1,.489-1,4.285,4.285,0,0,1,1.447-.563,7.793,7.793,0,0,1,1.665-.111c.5.029.48-.021.64-.36.132-.279.28-.568.408-.856a2.364,2.364,0,0,0,.277-.8c-.01-.334-.524-.332-.776-.384a6.746,6.746,0,0,0-.753-.083,6.186,6.186,0,0,0-2.945.367c-.345.143-.589.357-.68.353s-.12-.217-.151-.27c-.074-.122-.15-.232-.214-.363a.558.558,0,0,0-.269-.3.578.578,0,0,0-.317-.009,2.745,2.745,0,0,0-1.5.764c-.393.405-.061,1.126.055,1.577a3.639,3.639,0,0,1,.08.387" transform="translate(-0.264)" fill="#fff"/><path d="M62.284,42c-.165.025-.328.058-.484.089-.477.1-1.174.134-1.453.58a1.373,1.373,0,0,0-.156.5q-.168.963-.314,1.929-.243,1.611-.425,3.228t-.3,3.24q-.123,1.622-.185,3.247a17.193,17.193,0,0,1-.3,2.414c-.073.406-.127.828-.231,1.227-.125.474-.336.022-.473-.262-.454-.939-.685-1.889-1.1-2.86-.4-.947-.594-1.965-.911-2.942q-.525-1.61-1.06-3.216a9.027,9.027,0,0,0-.613-1.785,2.25,2.25,0,0,0-2.118-.886c-1.222.076-1.615,1.139-1.783,2.136q-.745,4.443-1.47,8.885c-.072.44-.12.885-.226,1.319-.027.112-.106.615-.247.634-.157.02-.448-.912-.51-1.065a24.054,24.054,0,0,1-.844-2.666c-.391-1.431-.76-2.868-1.161-4.3-.373-1.333-.77-2.658-1.146-3.99-.188-.663-.646-1.871-1.577-1.845-.783.021-1.961.045-1.961.045s-.773.073-.543.97c1.991,6.092,3.2,9.1,5.1,15.208,0,0,.22.9,1.013.888,1.287-.016,3.613.673,4.332-.747a3.433,3.433,0,0,0,.29-1.331c.149-2.173.554-4.352.846-6.517.091-.679.184-1.358.275-2.036,0-.036.022-.083.059-.08s.044.036.052.063c.835,2.932,1.93,5.833,2.935,8.73.267.767.6,1.283,1.46,1.227a21.576,21.576,0,0,0,2.6-.251,2.235,2.235,0,0,0,1.595-1.9c.563-3.615.762-7.258,1.16-10.891.056-.509.1-1.478.208-1.979.164-.738.34-1.027.538-1.778.149-.568.318-1.389.535-2.226.085-.328.22-.754-.185-.926A2.263,2.263,0,0,0,62.284,42" transform="translate(-0.264)" fill="#fff"/><path d="M79.071,56.319c.051,1.243,0,2.833.046,4.076.008.2-.007.314,0,.519.015.34.9.22,2.148-.124.9-.247.769-.28.766-.787-.013-1.946-.11-4.363-.164-6.7-.078-3.411-.257-7.5-.289-10.9-.012-1.262-.169-.97-.855-1.163A13.476,13.476,0,0,0,79.3,40.88c-.429-.046-.6-.087-.646,1.119-.041.96.053,1.956.088,2.915.047,1.28.021,2.572.06,3.834.078,2.512.17,5.048.273,7.571" transform="translate(-0.264)" fill="#fff"/><path d="M129.9,43.134c-.377-.02-1.849-.068-2.6-.117-.967-.063-1.992-.246-3.3-.34s-1.46.749-1.484,1.106-.039,1.251-.079,1.83q-.023.336-.049.672a5.112,5.112,0,0,1-.074.65c-.04.348-.07.7-.113,1.042a.13.13,0,0,1-.036.09.135.135,0,0,1-.093.018c-.569-.03-1.137-.089-1.706-.137a1.628,1.628,0,0,0-.478.007.582.582,0,0,0-.373.242,1.576,1.576,0,0,0-.163.455A6.907,6.907,0,0,0,119,49.981c-.01.1-.067.226.037.292a.292.292,0,0,0,.138.032c.72.047,1.437.153,2.158.178.12,0,.24.008.36.014l.078,0a.2.2,0,0,1,.1.023c.061.041.051.129.047.2-.047.764-.111,1.5-.164,2.223-.183,2.515-.257,4.987-.442,7.5-.054.723-.091,1.188-.15,1.911-.038.473-.606,1.368-.293,1.788a.942.942,0,0,0,1.154.175,3.641,3.641,0,0,0,1.518-1.078,3.8,3.8,0,0,0,.47-1.746c.054-.725.063-1.459.123-2.191.167-2.023.4-4.051.482-6.078.031-.732.079-1.463.15-2.192.009-.092.01-.189.028-.279.014-.074.077-.072.145-.066a20.583,20.583,0,0,0,2.136.074.8.8,0,0,0,.333-.055c.583-.282.483-1.526.544-2.037.045-.378-.681-.262-.891-.269-.137,0-.275-.015-.413-.024-.56-.037-1.116-.115-1.675-.153a.106.106,0,0,1-.064-.017.111.111,0,0,1-.027-.1c.014-.355.036-.71.064-1.065q.021-.268.048-.537a2.109,2.109,0,0,1,.07-.469,1.2,1.2,0,0,1,.958-.769c.283-.024,1.3.061,1.863.109a5.076,5.076,0,0,0,1.874-.128c.528-.167.753-1,.906-1.578.083-.313-.362-.523-.763-.544" transform="translate(-0.264)" fill="#fff"/><path d="M106.079,56.934a2.336,2.336,0,0,1-2.477,2.051,2.9,2.9,0,0,1-1.319-.132c-.617-.158-.89-1.03-.993-1.392a15.792,15.792,0,0,1-.166-2.6,28.761,28.761,0,0,1,.332-3.564c.164-.755.837-.993,1.4-1.16a3.918,3.918,0,0,1,1.2-.266,1.84,1.84,0,0,1,1.89,1.322,14.729,14.729,0,0,1,.427,2.684,20.572,20.572,0,0,1-.287,3.058m2.615-6.979a3.327,3.327,0,0,0-2.224-2.426,11.324,11.324,0,0,0-2.7-.344,10.833,10.833,0,0,0-3.28.448,4.154,4.154,0,0,0-1.864,2.385,26.787,26.787,0,0,0-.393,4.07,26.667,26.667,0,0,0,.547,5.094,2.5,2.5,0,0,0,2.15,1.806c.507.051,4.28.283,4.642.3a2.723,2.723,0,0,0,2.39-1.72,18.9,18.9,0,0,0,1.047-5.265,23.773,23.773,0,0,0-.312-4.343" transform="translate(-0.264)" fill="#fff"/><path d="M69.226,29.358c0-.03.008-.06.01-.088.013-.176.03-.352.049-.527.039-.345.085-.691.153-1.032a1.1,1.1,0,0,1,.262-.665c.32-.256,1.076-.156,1.462-.162,1.095-.017,3.3-.215,3.319,1.387a1.2,1.2,0,0,1-.556,1.065,4.087,4.087,0,0,1-1.477.4q-.189.027-.378.048a11.522,11.522,0,0,1-1.365.055q-.342,0-.684-.017a3.855,3.855,0,0,1-.636-.025.2.2,0,0,1-.14-.088.588.588,0,0,1-.019-.351m5.941,5.3a1.516,1.516,0,0,1-.159.022c-.47.037-.943.055-1.415.069q-.855.026-1.711.014a8.217,8.217,0,0,1-1.5-.112,1.308,1.308,0,0,1-.83-.511,3.359,3.359,0,0,1-.347-1.948c.01-.113.037-.165.161-.161.929.026,1.948.057,2.877.073a7.971,7.971,0,0,0,1.217-.042,8.683,8.683,0,0,0,1.094-.22,3.346,3.346,0,0,0,.8-.307,3.7,3.7,0,0,0,1.468-3.211c-.009-1.3-.222-2.87-1.8-3.386a7.848,7.848,0,0,0-2.46-.243c-.269,0-.534,0-.791-.006-.187-.005-.375-.013-.563-.02-.565-.023-1.148-.046-1.722-.018a2.145,2.145,0,0,0-2,1.488,32.845,32.845,0,0,0-.456,5.536,23,23,0,0,0,.319,2.945,2.819,2.819,0,0,0,.18.632A2.691,2.691,0,0,0,68.6,36.5a3.855,3.855,0,0,0,1.479.437l.207.032a12.907,12.907,0,0,0,2.07.159,19.39,19.39,0,0,0,2.352-.156l.1-.012c.431-.05,1.02-.117,1.208-.711.136-.43.342-1.08-.078-1.5-.213-.213-.5-.131-.769-.083" transform="translate(-0.264)" fill="#fff"/><path d="M81.591,36.444c0-2.815-.407-5.62-.323-8.437,0-.823.033-1.664.066-2.477.016-.411.032-.822.045-1.233.015-.534-.017-1.067-.049-1.583-.026-.418-.052-.85-.052-1.275,0-.271,0-.991-.548-1.147-.153-.044-.314-.1-.467-.149a2.981,2.981,0,0,0-.728-.189c-.31,0-.659.154-.689.49a13.79,13.79,0,0,0-.011,1.737c.008.254.017.507.02.756,0,.551-.006,1.1-.017,1.651s-.022,1.075-.017,1.609l.045,5.054c.02,1.369-.053,2.871.045,4.228.022.319-.007,1.08.034,1.14.2.294.974.474,1.5.612,1.348.356,1.152.109,1.15-.787" transform="translate(-0.264)" fill="#fff"/><path d="M92.344,32.347a1.782,1.782,0,0,0-.855-1.518,21.285,21.285,0,0,0-2.823-1.614,9.75,9.75,0,0,1-2.157-1.222.842.842,0,0,1-.25-.265c-.131-.252.047-.463.266-.567a3.811,3.811,0,0,1,1.588-.207h.219c.509,0,1.019-.012,1.528-.027.082,0,.166,0,.249,0a2.7,2.7,0,0,0,1.108-.164,1.913,1.913,0,0,0,.967-1.184l.022-.066a1.055,1.055,0,0,0,.081-.706c-.127-.29-.481-.251-.715-.226-.047,0-.091.01-.128.011l-4.882.163c-.1,0-.2,0-.3,0a3.863,3.863,0,0,0-1.168.135,1.775,1.775,0,0,0-1.17,1.531c-.012.1-.029.228-.049.372a5.936,5.936,0,0,0-.1,1.837,2.273,2.273,0,0,0,1.01,1.184c.286.191,2.2,1.056,3.843,1.788l.381.171a1.3,1.3,0,0,1,.664.529,1.6,1.6,0,0,1,.1.975,2.867,2.867,0,0,1-.183.909.713.713,0,0,1-.676.424c-.316.012-.633.007-.949.013-.681.014-1.36.058-2.039.041l-1.361-.034a1.288,1.288,0,0,0-.561.026.749.749,0,0,0-.342.365,4.891,4.891,0,0,0-.273,1l-.014.072a.516.516,0,0,0,.395.669c.335.067,5.02.19,6.167.189.1,0,.175,0,.216,0a2.159,2.159,0,0,0,1.824-1.274,13.9,13.9,0,0,0,.373-3.333" transform="translate(-0.264)" fill="#fff"/><path d="M97.765,34.511c-.211-.05-.511-.275-.748-1.061a13.563,13.563,0,0,1-.177-2.164c0-.728.043-1.51.131-2.391l.014-.164a3.279,3.279,0,0,1,.056-.449.758.758,0,0,1,.155-.345,2.226,2.226,0,0,1,1.284-.646c.279-.055.57-.082.851-.109.206-.02.412-.04.617-.069a1.875,1.875,0,0,1,.277-.021,1.675,1.675,0,0,1,.881.243,1.417,1.417,0,0,1,.531.729,12.917,12.917,0,0,1,.418,2.22,17.814,17.814,0,0,1-.153,2.582,1.763,1.763,0,0,1-1.79,1.659l-.1.014a9.711,9.711,0,0,1-2.242-.028m6.411-7.6-.012-.067a2.761,2.761,0,0,0-1.984-2.109,12.215,12.215,0,0,0-2.982-.192,12.544,12.544,0,0,0-3.215.472,3.71,3.71,0,0,0-1.589,2.163,23.917,23.917,0,0,0-.279,3.494,22.817,22.817,0,0,0,.534,4.383,2.237,2.237,0,0,0,1.966,1.592c1.034.084,2.095.082,3.12.081.429,0,.855,0,1.281,0l.264,0a2.8,2.8,0,0,0,1.507-.325,2.346,2.346,0,0,0,1.066-1.31,16.18,16.18,0,0,0,.712-4.553,21.139,21.139,0,0,0-.389-3.635" transform="translate(-0.264)" fill="#fff"/><path d="M64.567,20.006c-.463-.018-.844-.017-1.2,0a.8.8,0,0,0-.8.782,31.1,31.1,0,0,0,0,3.4c.058,1.532.088,3.066.114,4.6.019,1.2.042,2.392.077,3.589,0,.112.054.781-.1.787-.132.006-.213-.344-.25-.435-.14-.339-.265-.684-.416-1.018a17.974,17.974,0,0,1-.673-1.769c-.206-.619-.4-1.243-.608-1.86-.407-1.187-.808-2.377-1.222-3.562l-.579-1.686a2.276,2.276,0,0,0-.269-.581.812.812,0,0,0-.37-.3,1.748,1.748,0,0,0-.592-.09c-.071,0-.14,0-.211,0l-.272-.007c-.182,0-.364-.006-.546-.007-.364,0-.727,0-1.091.012-.16.008-.319.012-.478.025s-.329.031-.492.055a.465.465,0,0,0-.331.271,2.238,2.238,0,0,0-.114,1.02c.005.13.01.252.007.372l-.088,3.883c-.021.891-.014,1.8-.008,2.674.008,1.03-.067,2.057-.088,3.086-.021,1.011.119,1.979.184,2.981.024.353.107.581.449.634a2.848,2.848,0,0,0,1.6-.112c.328-.172.363-.563.371-.948q.024-1.239.047-2.479c.016-.933.048-1.865.078-2.8.014-.469.029-.937.041-1.406s.039-.93.027-1.392q-.015-.567,0-1.132c.006-.191.014-.381.026-.572.006-.1.012-.2.019-.293a.6.6,0,0,1,.035-.249c.045-.071.127,0,.173.042a1.433,1.433,0,0,1,.273.417c.081.158.16.316.235.478a10.47,10.47,0,0,1,.527,1.4c.083.279.2.556.286.835q.146.454.28.912c.092.314.183.626.278.938.069.222.14.445.21.668.168.527.342,1.071.478,1.613.21.832-.067-.037.232.754.051.136.1.273.154.41l.819,2.19c.154.412.262.649.678.729a13.916,13.916,0,0,0,2.714-.025c.668-.008.787-.322.8-1.022q.138-6.695.275-13.39l.007-.3c.01-.46.02-.936.014-1.4-.006-.526-.187-.709-.717-.729" transform="translate(-0.264)" fill="#fff"/><path d="M116.648,37.419c-.042-.453-.06-1.073-.074-1.527-.009-.324-.016-.559-.027-.639-.062-2.252-.218-7.67-.233-8.129a2.628,2.628,0,0,0-2.632-2.347c-1.472-.131-2.967-.089-4.444-.112-.332,0-.168-.254-.344-.419a.737.737,0,0,0-.428-.084,18.161,18.161,0,0,0-1.976.048c-.179.065-.214.222-.225.391-.013.207,0,.416,0,.623.007.341.016.675.012,1.018-.006.506,0,1.012,0,1.518l0,.27c-.01,1.491.008,2.981.034,4.471q.02,1.119.042,2.236c.008.381.015.761.022,1.142.006.317,0,.548.268.758a2.341,2.341,0,0,0,1.914-.044,1.916,1.916,0,0,0,.163-.671c.085-1.478.087-3.23.131-4.293.027-.648.056-1.3.078-1.948.016-.484.026-.967.053-1.45a7.71,7.71,0,0,1,.115-1.316,2.9,2.9,0,0,1,.837.016c.823.054,1.647.114,2.466.21a1.48,1.48,0,0,1,.974.311,2.558,2.558,0,0,1,.407,1.541c.082,2.545.258,5.106.28,7.651,0,.3.006.6,0,.9,0,.05-.006.106-.01.166a1.366,1.366,0,0,0,.145.925.58.58,0,0,0,.457.144,3.755,3.755,0,0,0,.948-.168l.131-.043c.512-.167,1-.324.921-1.144" transform="translate(-0.264)" fill="#fff"/><path d="M97.464,74.476c.018.11.035.219.056.319a11.323,11.323,0,0,1,.245,1.555,8.867,8.867,0,0,1-.04,1.277c-.011.139-.018.283-.025.429a8.653,8.653,0,0,1-.074.869,1.962,1.962,0,0,1-.513,1.146,3.1,3.1,0,0,1-2.707.506c-.211-.05-.512-.274-.748-1.061a13.446,13.446,0,0,1-.177-2.164,30.447,30.447,0,0,1,.212-3.321c.137-.717,1.13-.939,1.779-.967a2.345,2.345,0,0,1,1.518.31c.33.207.4.662.474,1.1m2.421-1.5-.011-.064A2.927,2.927,0,0,0,97.843,70.8l-.057-.007a8.733,8.733,0,0,0-2.121-.178,11.106,11.106,0,0,0-3.041.473,3.7,3.7,0,0,0-1.589,2.162,23.917,23.917,0,0,0-.279,3.494,22.807,22.807,0,0,0,.534,4.383A2.218,2.218,0,0,0,92.9,82.633c1.116.12,2.255.063,3.376.082a15.446,15.446,0,0,0,1.667-.045c.575-.053,1.051-.127,1.342-.689a6.861,6.861,0,0,0,.391-1.183q.206-.686.344-1.388a13.134,13.134,0,0,0,.258-2.8,21.053,21.053,0,0,0-.39-3.638" transform="translate(-0.264)" fill="#fff"/><path d="M116.052,81.592c-.01-.069-.019-.133-.025-.192a58.6,58.6,0,0,1-.282-6.6c0-1.113.025-2.226.045-3.34.023-1.243.053-2.985.046-4.253,0-.781.054-1.009-.6-1.147-.169-.036-.343-.1-.511-.148a7.092,7.092,0,0,0-.8-.189c-.713-.134-.713-.134-.759.489a14.568,14.568,0,0,0-.012,1.6c.009.232.017.464.02.693.006.632,0,1.716-.011,2.344-.009.578-.017,1.156-.013,1.738l.064,9.15a1.723,1.723,0,0,0,.207.969,1.639,1.639,0,0,0,1.33.468,2.367,2.367,0,0,0,.9-.153c.571-.258.471-.968.406-1.437" transform="translate(-0.264)" fill="#fff"/><path d="M104.814,77.782c-.032-.471-.067-1.019-.067-1.563a13.527,13.527,0,0,1,.177-2.163c.237-.788.538-1.012.748-1.061.478-.113,2.33-.221,2.626.3a2.659,2.659,0,0,1,.259,1.069c.136,1.426.141,2.865.2,4.3a2.117,2.117,0,0,1-.1.911c-.469,1.107-2.448,1.159-3.337.572-.57-.377-.541-1.008-.51-1.675a6.084,6.084,0,0,0,.007-.688m5.655-5.377a2.456,2.456,0,0,0-2.107-1.64c-1.394,0-2.449-.021-3.84.092a2.238,2.238,0,0,0-1.966,1.592,22.827,22.827,0,0,0-.534,4.383,23.917,23.917,0,0,0,.279,3.494,2.622,2.622,0,0,0,.365,1.006,3.137,3.137,0,0,0,1.177,1.086,3.254,3.254,0,0,0,.95.21c.788.076,1.58.087,2.371.1a3.646,3.646,0,0,0,3-.887c.925-1.019.9-2.691.98-3.982.019-.3.03-.6.036-.9a16.18,16.18,0,0,0-.712-4.553" transform="translate(-0.264)" fill="#fff"/><path d="M76.5,80.522a5.88,5.88,0,0,0-1.222.072,5.808,5.808,0,0,1-.723.066c-.632,0-1.263-.063-1.892-.124a1.216,1.216,0,0,1-1.05-.7,2.886,2.886,0,0,1-.124-.49,15.376,15.376,0,0,1-.317-3.391,4.9,4.9,0,0,1,.353-1.788,1.638,1.638,0,0,1,.821-.914,2.942,2.942,0,0,1,1.01-.124c.891-.014,1.781.008,2.672.008a1.476,1.476,0,0,0,1.141-.67c.255-.407.433-.967.22-1.233-.188-.235-.653-.251-1.192-.27-.131,0-.262-.009-.39-.017-.67-.042-1.349-.037-2-.031-.4,0-.8.007-1.2,0a3.621,3.621,0,0,0-3.256,1.732,4.184,4.184,0,0,0-.5,2.243c-.023.772-.057,1.571-.014,2.34q.07,1.254.26,2.5a4.346,4.346,0,0,0,.374,1.6,2.933,2.933,0,0,0,1.308,1.109,9.024,9.024,0,0,0,3.523.58c.31.009.619.018.924.036l.248.017c.212.016.44.033.667.033a1.7,1.7,0,0,0,1.169-.332,1.049,1.049,0,0,0,.309-.806,1.308,1.308,0,0,0-1.107-1.44" transform="translate(-0.264)" fill="#fff"/><path d="M88.8,81.978c-.033-1.592-.115-3.181-.2-4.771-.08-1.5-.156-2.913-.156-3.115a5.145,5.145,0,0,0-.864-2.4,3.087,3.087,0,0,0-2.347-.9c-.583-.019-1.167-.006-1.751.016-.292.01-.584.023-.876.034l-.437.016c-.1,0-.16-.007-.191-.113a2.37,2.37,0,0,1-.006-.641c0-.241,0-.481.007-.722.007-.7.079-1.3.086-2,.006-.572.061-1.112.05-1.684-.02-.872.026-1.065-.082-1.146a2.093,2.093,0,0,0-1.005.141c-.407.147-.833.241-1.241.384a.5.5,0,0,0-.385.571c.037,1.793-.039,3.587-.039,5.38,0,.464-.039,1.418-.081,2.428-.05,1.222-.1,2.486-.1,3.233,0,.8.01,1.6.02,2.4.012.951.052,1.934.019,2.9-.039,1.115.066,1.115.974,1.115,1.241,0,1.258,0,1.6-.651a2.007,2.007,0,0,0,.136-.969l-.018-1.646c-.011-1-.025-2-.018-3,0-.891.015-1.781.038-2.67.008-.318,0-.632,0-.95,0-.025-.009-.06.012-.075a1.555,1.555,0,0,1,.488-.06c.386,0,.774-.02,1.159.015a3.219,3.219,0,0,1,1.8.561,2.038,2.038,0,0,1,.548,1.24c.088.7.322,2.988.322,3.433,0,.247.038,3.224.093,3.608-.022.563-.025,1.3-.025,1.688,0,.029,0,.072-.01.124a1.235,1.235,0,0,0,.162.937.5.5,0,0,0,.374.148l.043,0a3.646,3.646,0,0,0,1.48-.5c.524-.287.445-.464.445-.909q0-.72-.016-1.438" transform="translate(-0.264)" fill="#fff"/><path d="M67.01,77.424a1.921,1.921,0,0,0-.511-1.3,8.216,8.216,0,0,0-1.269-1.071,20.673,20.673,0,0,0-2.958-1.608,16.236,16.236,0,0,1-2.216-1.051c-.3-.206-1.047-.993-.733-1.395.132-.169.389-.167.6-.175.36-.012.721-.015,1.083-.018l2.805-.024c.229,0,.458,0,.687-.006.17,0,.318-.049.485-.063a1.79,1.79,0,0,0,1.263-.453A2.752,2.752,0,0,0,66.9,69a.658.658,0,0,0-.071-.565.75.75,0,0,0-.606-.175l-6.094.078a4.322,4.322,0,0,0-2.335.475,2.158,2.158,0,0,0-.815,1.015c-.447,1.132-.525,3.08.426,3.986a5.333,5.333,0,0,0,1.6.96c.945.408,1.895.845,2.814,1.267q.609.281,1.219.559l.041.019a1.461,1.461,0,0,1,1.041,1.561c-.061,1.581-.149,2.045-.872,2.082a46.112,46.112,0,0,1-4.934.051q-.3-.018-.591-.033a1.913,1.913,0,0,0-.661.044c-.566.174-.687.909-.775,1.446-.015.094-.03.183-.046.262a.569.569,0,0,0,.178.615.73.73,0,0,0,.335.078c2.268.15,4.775.223,7.666.223a2.439,2.439,0,0,0,2.3-2.195,13.224,13.224,0,0,0,.294-3.327" transform="translate(-0.264)" fill="#fff"/></svg>
